<svg xmlns="http://www.w3.org/2000/svg" version="1.1" xmlns:xlink="http://www.w3.org/1999/xlink" xmlns:svgjs="http://svgjs.com/svgjs" height="137.38999633789064" width="254.9099884033203"><defs id="SvgjsDefs1245"></defs><g id="SvgjsG1246" rel="mainfill" name="main_text" xmlns:name="main_text" transform="translate(-2.990000009536743,-103.47000427246093)" fill="#ffffff"><path d="M10.69 211.35L10.69 222.47L25.66 222.47L25.66 211.35L33.36 211.35L33.36 240L25.66 240L25.66 229.31L10.69 229.31L10.69 240L2.99 240L2.99 211.35L10.69 211.35ZM66.75 218.19L47.04 218.19L47.04 222.47L62.48 222.47L62.48 229.31L47.04 229.31L47.04 233.16L66.75 233.16L66.75 240L39.34 240L39.34 211.35L66.75 211.35L66.75 218.19ZM79.54 211.35L79.54 240L71.84 240L71.84 211.35L79.54 211.35ZM101.26 234.14L93.22 222.89L93.22 240L85.53 240L85.53 211.35L93.22 211.35L103.23 226.02L113.24 211.35L120.93 211.35L120.93 240L113.24 240L113.24 222.89L105.20 234.14L101.26 234.14ZM157.97 226.79Q157.97 229.69 157.20 232.26Q156.43 234.83 154.50 236.73Q152.58 238.63 149.35 239.74Q146.12 240.86 141.20 240.86L139.66 240.86Q136.37 240.86 133.16 240.64Q129.96 240.43 126.92 240L126.92 211.39Q129.96 210.92 133.16 210.71Q136.37 210.49 139.66 210.49L141.20 210.49Q146.12 210.49 149.35 211.61Q152.58 212.72 154.50 214.62Q156.43 216.52 157.20 219.09Q157.97 221.65 157.97 224.56L157.97 226.79M139.88 234.10Q143.73 234.10 145.80 233.48Q147.87 232.86 148.84 231.73Q149.80 230.59 149.95 229.05Q150.10 227.51 150.10 225.67Q150.10 223.84 149.95 222.30Q149.80 220.76 148.84 219.64Q147.87 218.53 145.80 217.91Q143.73 217.29 139.88 217.29Q138.77 217.29 137.42 217.34Q136.07 217.38 134.62 217.46L134.62 233.93Q136.07 234.01 137.42 234.06Q138.77 234.10 139.88 234.10ZM160.96 240L160.96 238.29L173.70 211.35L181.40 211.35L194.14 238.29L194.14 240L187.22 240L184.74 234.44L170.33 234.44L167.89 240L160.96 240M181.91 228.03L177.55 218.23L173.19 228.03L181.91 228.03ZM197.99 240L197.99 211.35L205.69 211.35L205.69 233.16L225.40 233.16L225.40 240L197.99 240ZM230.49 240L230.49 211.35L238.19 211.35L238.19 233.16L257.90 233.16L257.90 240L230.49 240Z" fill="#ffffff" style="fill: rgb(255, 255, 255);"></path></g><g id="SvgjsG1247" rel="mainfill" name="symbol" xmlns:name="symbol_mainfill" transform="translate(71.93499298095702,-3.4000000000000004) scale(0.2)" fill="#ffffff"><polygon points="239.4,17 412,17 297.7,176 412.2,176 149.1,477.1 240,270 143,270 "></polygon></g></svg>